<?xml version="1.0" standalone="no"?><!DOCTYPE svg PUBLIC "-//W3C//DTD SVG 1.1//EN" "http://www.w3.org/Graphics/SVG/1.1/DTD/svg11.dtd"><svg t="1648041870345" class="icon" viewBox="0 0 1024 1024" version="1.1" xmlns="http://www.w3.org/2000/svg" p-id="2309" xmlns:xlink="http://www.w3.org/1999/xlink" width="32" height="32"><defs><style type="text/css">@font-face { font-family: feedback-iconfont; src: url("//at.alicdn.com/t/font_1031158_u69w8yhxdu.woff2?t=1630033759944") format("woff2"), url("//at.alicdn.com/t/font_1031158_u69w8yhxdu.woff?t=1630033759944") format("woff"), url("//at.alicdn.com/t/font_1031158_u69w8yhxdu.ttf?t=1630033759944") format("truetype"); }
</style></defs><path d="M202 345.4L69 549.8a21.2 21.2 0 0 0-3.4 11.5V802c0 6.7 5.5 12.2 12.2 12.2h22.9c4.5 58.8 53.2 105.3 113.1 105.3 60 0 108.6-46.5 113.1-105.3h67.5V336.7H218c-6.4 0-12.5 3.3-16 8.7z m28.9 97.5h127.4c2 0 3.6 1.6 3.6 3.6v105.9c0 1.9-1.6 3.5-3.5 3.5H156.5c-1.7 0-2.8-1.9-1.8-3.4l69.2-106c1.6-2.2 4.2-3.6 7-3.6zM726 691.5c-63 0-114 51-114 114s51 114 114 114 114-51 114-114-51.1-114-114-114z" fill="#2c2c2c" p-id="2310"></path><path d="M899.1 131.4H454.3c-33 0-59.8 26.8-59.8 59.8v623h504.6c33 0 59.8-26.8 59.8-59.8V191.2c0-33-26.7-59.8-59.8-59.8z" fill="#707070" p-id="2311"></path></svg>